# xmcd CD database file
#
# Track frame offsets:
#	150
#	25607
#	48955
#	80498
#	332550
#
# Disc length: 4440 seconds
#
# Revision: 0
# Processed by: cddbd v1.5PL3 Copyright (c) Steve Scherf et al.
# Submitted via: CDex 1.40Beta9
#
DISCID=31115605
DTITLE=Kazami - リズム
DYEAR=1900
DGENRE=R&B
TTITLE0=リズム feat.SPHERE of INFLUENCE
TTITLE1=リズム(DJ WATARAI REMIX)
TTITLE2=リズム(original ver.)
TTITLE3=Data1
TTITLE4=Data2
EXTD=ID3G: 14
EXTT0=
EXTT1=
EXTT2=
EXTT3=
EXTT4=
PLAYORDER=
